<svg xmlns="http://www.w3.org/2000/svg" viewBox="0 0 256 256" role="img" aria-label="shadar_kai female">
  <defs>
    <radialGradient id="bg" cx="50%" cy="38%" r="75%">
      <stop offset="0%" stop-color="#4a4e69" stop-opacity="0.30"/>
      <stop offset="55%" stop-color="#151827"/>
      <stop offset="100%" stop-color="#0b0d16"/>
    </radialGradient>
    <radialGradient id="hd" cx="42%" cy="32%" r="85%">
      <stop offset="0%" stop-color="#8d8993"/>
      <stop offset="62%" stop-color="#6d6875"/>
      <stop offset="100%" stop-color="#4e4b54"/>
    </radialGradient>
    <linearGradient id="arm" x1="0" y1="0" x2="0" y2="1">
      <stop offset="0%" stop-color="#3f4259"/>
      <stop offset="35%" stop-color="#21232f"/>
      <stop offset="100%" stop-color="#10121c"/>
    </linearGradient>
    <linearGradient id="veil" x1="0" y1="0" x2="0" y2="1">
      <stop offset="0%" stop-color="#0b0d16" stop-opacity="0"/>
      <stop offset="100%" stop-color="#0b0d16"/>
    </linearGradient>
  </defs>
  <rect width="256" height="256" fill="url(#bg)"/>
  <g style="filter: hue-rotate(-2deg)">
    <path d="M80 92 Q70 170 88 204 L106 186 Q92 142 96 98 Z" fill="#292b3a"/><path d="M176 92 Q186 170 168 204 L150 186 Q164 142 160 98 Z" fill="#292b3a"/><path d="M84 98 Q84 52 128 50 Q172 52 172 98 Q168 66 128 64 Q88 66 84 98 Z" fill="#292b3a"/>
    <rect x="114" y="134" width="28" height="34" fill="#4e4b54"/>
    <path d="M78 212 Q128 160 178 212 L178 256 L78 256 Z" fill="url(#arm)"/>
    <path d="M82 216 Q128 168 174 216" fill="none" stroke="#3f4259" stroke-width="4" opacity="0.9"/>
    <path d="M120 226 L128 214 L136 226 L128 240 Z" fill="#3f4259" opacity="0.9"/>
    <circle cx="128" cy="104" r="42" fill="url(#hd)"/>
    <ellipse cx="112" cy="102" rx="6" ry="4.5" fill="#10121c"/><ellipse cx="144" cy="102" rx="6" ry="4.5" fill="#10121c"/><circle cx="114" cy="100" r="1.6" fill="#e8ecf4" opacity="0.85"/><circle cx="146" cy="100" r="1.6" fill="#e8ecf4" opacity="0.85"/><path d="M104 92 Q112 88 120 92" stroke="#4e4b54" stroke-width="3" fill="none" stroke-linecap="round"/><path d="M136 92 Q144 88 152 92" stroke="#4e4b54" stroke-width="3" fill="none" stroke-linecap="round"/><path d="M119 124 Q128 129 137 124" stroke="#4e4b54" stroke-width="2.5" fill="none" stroke-linecap="round" opacity="0.8"/>
    <rect x="60" y="120" width="136" height="80" fill="url(#veil)" opacity="0.55"/>
  </g>
  <rect x="0" y="212" width="256" height="44" fill="url(#veil)" opacity="0.35"/>
  <circle cx="128" cy="128" r="121" fill="none" stroke="#4a4e69" stroke-width="5" opacity="0.55"/>
  <circle cx="128" cy="128" r="113" fill="none" stroke="#4a4e69" stroke-width="1.5" stroke-dasharray="3 9" opacity="0.4"/>
</svg>
