<svg xmlns="http://www.w3.org/2000/svg" viewBox="0 0 256 256" role="img" aria-label="tabaxi_jaguar male">
  <defs>
    <radialGradient id="bg" cx="50%" cy="38%" r="75%">
      <stop offset="0%" stop-color="#ffb703" stop-opacity="0.30"/>
      <stop offset="55%" stop-color="#151827"/>
      <stop offset="100%" stop-color="#0b0d16"/>
    </radialGradient>
    <radialGradient id="hd" cx="42%" cy="32%" r="85%">
      <stop offset="0%" stop-color="#e1b588"/>
      <stop offset="62%" stop-color="#d9a066"/>
      <stop offset="100%" stop-color="#9c7349"/>
    </radialGradient>
    <linearGradient id="arm" x1="0" y1="0" x2="0" y2="1">
      <stop offset="0%" stop-color="#d99c03"/>
      <stop offset="35%" stop-color="#735201"/>
      <stop offset="100%" stop-color="#10121c"/>
    </linearGradient>
    <linearGradient id="veil" x1="0" y1="0" x2="0" y2="1">
      <stop offset="0%" stop-color="#0b0d16" stop-opacity="0"/>
      <stop offset="100%" stop-color="#0b0d16"/>
    </linearGradient>
  </defs>
  <rect width="256" height="256" fill="url(#bg)"/>
  <g style="filter: hue-rotate(-4deg)">
    <path d="M86 96 Q88 54 128 52 Q168 54 170 96 Q166 72 128 70 Q90 72 86 96 Z" fill="#8c6502"/>
    <rect x="114" y="134" width="28" height="34" fill="#9c7349"/>
    <path d="M64 208 Q128 154 192 208 L192 256 L64 256 Z" fill="url(#arm)"/>
    <path d="M70 212 Q128 162 186 212" fill="none" stroke="#d99c03" stroke-width="4" opacity="0.9"/>
    <path d="M120 226 L128 214 L136 226 L128 240 Z" fill="#d99c03" opacity="0.9"/>
    <circle cx="128" cy="104" r="42" fill="url(#hd)"/>
    <ellipse cx="112" cy="102" rx="6" ry="4.5" fill="#10121c"/><ellipse cx="144" cy="102" rx="6" ry="4.5" fill="#10121c"/><circle cx="114" cy="100" r="1.6" fill="#e8ecf4" opacity="0.85"/><circle cx="146" cy="100" r="1.6" fill="#e8ecf4" opacity="0.85"/><path d="M104 92 Q112 88 120 92" stroke="#9c7349" stroke-width="3" fill="none" stroke-linecap="round"/><path d="M136 92 Q144 88 152 92" stroke="#9c7349" stroke-width="3" fill="none" stroke-linecap="round"/><path d="M119 124 Q128 129 137 124" stroke="#9c7349" stroke-width="2.5" fill="none" stroke-linecap="round" opacity="0.8"/>
    <path d="M92 76 L86 46 L114 62 Z" fill="#d9a066"/><path d="M164 76 L170 46 L142 62 Z" fill="#d9a066"/>
  </g>
  <rect x="0" y="212" width="256" height="44" fill="url(#veil)" opacity="0.35"/>
  <circle cx="128" cy="128" r="121" fill="none" stroke="#d9a066" stroke-width="5" opacity="0.55"/>
  <circle cx="128" cy="128" r="113" fill="none" stroke="#ffb703" stroke-width="1.5" stroke-dasharray="3 9" opacity="0.4"/>
</svg>
