<svg viewBox="0 0 240 240" xmlns="http://www.w3.org/2000/svg" role="img" aria-label="Cavaliere di Draghi">
  <defs>
    <radialGradient id="bg" cx="50%" cy="38%" r="75%">
      <stop offset="0%" stop-color="#9d624d"/>
      <stop offset="70%" stop-color="#7c2d12"/>
      <stop offset="100%" stop-color="#44190a"/>
    </radialGradient>
    <filter id="glow" x="-40%" y="-40%" width="180%" height="180%">
      <feGaussianBlur stdDeviation="4" result="b"/>
      <feMerge><feMergeNode in="b"/><feMergeNode in="SourceGraphic"/></feMerge>
    </filter>
  </defs>
  <circle cx="120" cy="120" r="112" fill="url(#bg)"/>
  <circle cx="120" cy="120" r="112" fill="none" stroke="#38bdf8" stroke-width="6"/>
  <circle cx="120" cy="120" r="100" fill="none" stroke="#f97316" stroke-width="2" stroke-dasharray="4 7" opacity="0.7"/>
  <g filter="url(#glow)"><line x1="120" y1="52" x2="120" y2="188" stroke="#893f0c" stroke-width="8" stroke-linecap="round"/><polygon points="120,40 112,60 128,60" fill="#893f0c"/><path d="M120 84 q-44 8 -40 44 q4 28 40 32 q-20 -14 -20 -36 q0 -26 20 -40 Z" fill="#f97316"/><path d="M120 84 q30 10 26 34 l-14 -6 q6 18 -12 32 q14 -30 0 -60 Z" fill="#f97316"/></g>
</svg>
