<svg xmlns="http://www.w3.org/2000/svg" viewBox="0 0 800 320" preserveAspectRatio="xMidYMid slice" role="img" aria-label="sezione dungeons">
  <defs>
    <linearGradient id="sky" x1="0" y1="0" x2="0" y2="1">
      <stop offset="0%" stop-color="#20242f"/>
      <stop offset="100%" stop-color="#12151d"/>
    </linearGradient>
    <radialGradient id="glow" cx="50%" cy="46%" r="42%">
      <stop offset="0%" stop-color="#e0b843" stop-opacity="0.30"/>
      <stop offset="100%" stop-color="#e0b843" stop-opacity="0"/>
    </radialGradient>
    <linearGradient id="vig" x1="0" y1="0" x2="0" y2="1">
      <stop offset="55%" stop-color="#0b0d16" stop-opacity="0"/>
      <stop offset="100%" stop-color="#0b0d16" stop-opacity="0.9"/>
    </linearGradient>
    <filter id="softglow" x="-40%" y="-40%" width="180%" height="180%">
      <feGaussianBlur stdDeviation="8" result="b"/>
      <feMerge><feMergeNode in="b"/><feMergeNode in="SourceGraphic"/></feMerge>
    </filter>
  </defs>
  <rect width="800" height="320" fill="url(#sky)"/>
  <circle cx="427" cy="23" r="1.0" fill="#e0b843" opacity="0.49"/><circle cx="408" cy="46" r="1.4" fill="#dfe6f4" opacity="0.21"/><circle cx="155" cy="68" r="1.0" fill="#dfe6f4" opacity="0.35"/><circle cx="622" cy="121" r="1.4" fill="#e0b843" opacity="0.45"/><circle cx="96" cy="108" r="1.4" fill="#dfe6f4" opacity="0.24"/><circle cx="308" cy="32" r="1.0" fill="#dfe6f4" opacity="0.26"/><circle cx="607" cy="25" r="1.0" fill="#e0b843" opacity="0.32"/><circle cx="474" cy="132" r="1.0" fill="#dfe6f4" opacity="0.36"/><circle cx="527" cy="145" r="1.4" fill="#dfe6f4" opacity="0.22"/><circle cx="250" cy="128" r="1.4" fill="#e0b843" opacity="0.36"/><circle cx="177" cy="35" r="1.9" fill="#dfe6f4" opacity="0.34"/><circle cx="266" cy="74" r="1.0" fill="#dfe6f4" opacity="0.29"/><circle cx="304" cy="10" r="1.9" fill="#e0b843" opacity="0.51"/><circle cx="516" cy="104" r="1.4" fill="#dfe6f4" opacity="0.20"/><circle cx="284" cy="45" r="1.0" fill="#dfe6f4" opacity="0.29"/><circle cx="382" cy="67" r="1.9" fill="#e0b843" opacity="0.58"/><circle cx="177" cy="142" r="1.4" fill="#dfe6f4" opacity="0.42"/><circle cx="497" cy="144" r="1.4" fill="#dfe6f4" opacity="0.22"/><circle cx="574" cy="29" r="1.0" fill="#e0b843" opacity="0.29"/><circle cx="339" cy="132" r="1.9" fill="#dfe6f4" opacity="0.45"/><circle cx="203" cy="107" r="1.9" fill="#dfe6f4" opacity="0.47"/><circle cx="82" cy="150" r="1.9" fill="#e0b843" opacity="0.28"/><circle cx="765" cy="35" r="1.9" fill="#dfe6f4" opacity="0.36"/><circle cx="239" cy="47" r="1.0" fill="#dfe6f4" opacity="0.39"/>
  <path d="M0 232 L90 176 L170 214 L280 158 L390 210 L500 160 L610 206 L710 168 L800 204 L800 320 L0 320 Z" fill="#949699" opacity="0.5"/>
  <path d="M0 250 L120 190 L210 240 L330 170 L470 240 L580 180 L690 236 L800 200 L800 320 L0 320 Z" fill="#12151d" opacity="0.9"/>
  <path d="M0 280 L160 236 L320 276 L520 230 L680 272 L800 244 L800 320 L0 320 Z" fill="#0b0d16" opacity="0.75"/>
  <rect width="800" height="320" fill="url(#glow)"/>
  <circle cx="400" cy="150" r="104" fill="none" stroke="#e0b843" stroke-width="2" opacity="0.35"/>
  <circle cx="400" cy="150" r="120" fill="none" stroke="#e0b843" stroke-width="1" stroke-dasharray="4 10" opacity="0.3"/>
  <g filter="url(#softglow)"><path d="M340 230 L340 140 Q400 80 460 140 L460 230 L428 230 L428 152 Q400 118 372 152 L372 230 Z" fill="#e0b843"/></g>
  <rect width="800" height="320" fill="url(#vig)"/>
  <rect x="8" y="8" width="784" height="304" fill="none" stroke="#e0b843" stroke-width="1.5" opacity="0.35"/>
  <g stroke="#e0b843" stroke-width="3" opacity="0.6" fill="none">
    <path d="M8 34 L8 8 L34 8"/><path d="M766 8 L792 8 L792 34"/>
    <path d="M792 286 L792 312 L766 312"/><path d="M34 312 L8 312 L8 286"/>
  </g>
</svg>
