<svg xmlns="http://www.w3.org/2000/svg" viewBox="0 0 800 320" preserveAspectRatio="xMidYMid slice" role="img" aria-label="tema storm">
  <defs>
    <linearGradient id="sky" x1="0" y1="0" x2="0" y2="1">
      <stop offset="0%" stop-color="#242b3d"/>
      <stop offset="100%" stop-color="#131826"/>
    </linearGradient>
    <radialGradient id="glow" cx="50%" cy="46%" r="42%">
      <stop offset="0%" stop-color="#ffd166" stop-opacity="0.28"/>
      <stop offset="100%" stop-color="#ffd166" stop-opacity="0"/>
    </radialGradient>
    <linearGradient id="vig" x1="0" y1="0" x2="0" y2="1">
      <stop offset="55%" stop-color="#0b0d16" stop-opacity="0"/>
      <stop offset="100%" stop-color="#0b0d16" stop-opacity="0.9"/>
    </linearGradient>
  </defs>
  <rect width="800" height="320" fill="url(#sky)"/>
  <path d="M0 250 L120 190 L210 240 L330 170 L470 240 L580 180 L690 236 L800 200 L800 320 L0 320 Z" fill="#131826" opacity="0.9"/>
  <path d="M0 280 L160 236 L320 276 L520 230 L680 272 L800 244 L800 320 L0 320 Z" fill="#0b0d16" opacity="0.75"/>
  <rect width="800" height="320" fill="url(#glow)"/>
  <circle cx="400" cy="150" r="104" fill="none" stroke="#ffd166" stroke-width="2" opacity="0.35"/>
  <circle cx="400" cy="150" r="120" fill="none" stroke="#ffd166" stroke-width="1" stroke-dasharray="4 10" opacity="0.3"/>
  <path d="M420 60 L350 170 L392 170 L372 240 L452 130 L408 130 Z" fill="#ffd166"/>
  <rect width="800" height="320" fill="url(#vig)"/>
</svg>
